mastitorrents.com
  
http://mastitorrents.com/forums/index.php
  
http://thepiratebay.se/user/HDvideos/0/7

Murder 3 (2013) Hindi CAMRip

General
Format : MPEG-PS
File size : 404 MiB
Duration : 1h 53mn
Overall bit rate mode : Variable
Overall bit rate : 499 Kbps
Video #224
ID : 224 (0xE0)
Format : MPEG Video
Format version : Version 2
Format profile : Main@Main
Format settings, BVOP : Yes
Format settings, Matrix : Default
Format settings, GOP : M=3, N=12
Duration : 1h 53mn
Bit rate mode : Variable
Bit rate : 361 Kbps
Maximum bit rate : 2 519 Mbps
Width : 352 pixels
Height : 288 pixels
Display aspect ratio : 4:3
Frame rate : 25.000 fps
Standard : PAL
Color space : YUV
Chroma subsampling : 4:2:0
Bit depth : 8 bits
Scan type : Progressive
Compression mode : Lossy
Bits/(Pixel*Frame) : 0.143
Stream size : 292 MiB (72%)

Audio #192
ID : 192 (0xC0)
Format : MPEG Audio
Format version : Version 1
Format profile : Layer 2
Duration : 1h 53mn
Bit rate mode : Constant
Bit rate : 128 Kbps
Channel(s) : 2 channels
Sampling rate : 44.1 KHz
Compression mode : Lossy
Stream size : 104 MiB (26%)

Screens: 
http://imageshack.us/a/img37/7665/26240322.jpg